Coordinates
version=1
nRows=24
nColumns=22
inDegrees=yes

Units are S.I. units (second, meters, Newtons, ...)
If the header above contains a line with 'inDegrees', this indicates whether rotational values are in degrees (yes) or radians (no).

endheader
time	pelvis_tilt	pelvis_list	pelvis_rotation	pelvis_tx	pelvis_ty	pelvis_tz	hip_flexion_r	hip_adduction_r	hip_rotation_r	knee_angle_r	ankle_angle_r	subtalar_angle_r	hip_flexion_l	hip_adduction_l	hip_rotation_l	knee_angle_l	ankle_angle_l	subtalar_angle_l	lumbar_extension	lumbar_bending	lumbar_rotation
      2.97000000	     -6.92214356	     -8.29605633	      0.44146267	      0.07274566	      0.97876531	      0.45823143	     15.15105393	      7.61065880	     -5.82334593	    -23.93692941	     18.77184150	     -0.85364544	     36.56199733	    -10.93289530	    -11.70736372	    -51.04030025	     15.59138714	     -3.03422455	     -4.59634090	      9.64260627	      9.46663112
      2.98000000	     -6.85081876	     -8.30629498	      1.05817297	      0.07882082	      0.97846856	      0.45726142	     14.64986068	      7.50953946	     -6.26817392	    -23.85192995	     19.17111347	     -0.87655032	     36.97059392	    -10.65839834	    -11.92677495	    -49.18476483	     15.55269932	     -2.97605678	     -4.70136451	      9.61226235	      9.47468930
      2.99000000	     -6.77856632	     -8.30124653	      1.67557638	      0.08485865	      0.97811453	      0.45615350	     14.15379576	      7.39365698	     -6.70995946	    -23.78015091	     19.57373971	     -0.88202399	     37.33830629	    -10.32961919	    -12.09912593	    -47.28837277	     15.43479276	     -2.83048773	     -4.81322630	      9.56723188	      9.45870125
      3.00000000	     -6.67780930	     -8.29750972	      2.27794738	      0.09089053	      0.97776593	      0.45495224	     13.61690064	      7.29040306	     -7.11678873	    -23.69312569	     19.96320510	     -0.84251682	     37.63173652	     -9.98517254	    -12.24175299	    -45.35976876	     15.28352604	     -2.52366051	     -4.96494330	      9.52588302	      9.44188132
      3.01000000	     -6.66147021	     -8.31115130	      2.86983783	      0.09686731	      0.97719452	      0.45366160	     13.19116953	      7.19706205	     -7.56610862	    -23.64385054	     20.34729559	     -0.87177012	     37.99715140	     -9.62506497	    -12.32013110	    -43.43260827	     15.08366265	     -2.28321775	     -5.01732258	      9.50150993	      9.40567508
      3.02000000	     -6.57629910	     -8.34412547	      3.44033752	      0.10290741	      0.97671216	      0.45233727	     12.66036591	      7.14793397	     -7.95115843	    -23.54177214	     20.67981407	     -0.88396387	     38.24575917	     -9.29604817	    -12.39094325	    -41.49827767	     14.92184036	     -1.87381949	     -5.15219159	      9.49618993	      9.39042962
      3.03000000	     -6.51505677	     -8.41102439	      3.99175161	      0.10900256	      0.97613840	      0.45098056	     12.14162710	      7.14125903	     -8.33792747	    -23.41613465	     20.97186140	     -0.93803232	     38.49710317	     -9.00962041	    -12.46032427	    -39.58957502	     14.77149359	     -1.53613160	     -5.24810733	      9.52215481	      9.37208483
      3.04000000	     -6.47576537	     -8.51281403	      4.52289356	      0.11517436	      0.97548030	      0.44960439	     11.63423701	      7.17733423	     -8.72772400	    -23.27166450	     21.21758182	     -1.00588465	     38.75169404	     -8.77368765	    -12.54599522	    -37.72120512	     14.65425386	     -1.30437712	     -5.30336319	      9.57575944	      9.36109007
      3.05000000	     -6.33776088	     -8.65329377	      5.02395465	      0.12150210	      0.97496805	      0.44825163	     10.97052090	      7.29333684	     -9.02309768	    -23.03448756	     21.39646437	     -1.08984184	     38.87321578	     -8.63378134	    -12.70633089	    -35.90537716	     14.64536573	     -1.00176354	     -5.46580282	      9.66871439	      9.38695405
      3.06000000	     -6.23741251	     -8.82421430	      5.51919308	      0.12792472	      0.97433098	      0.44685348	     10.34573067	      7.43529046	     -9.36582904	    -22.79700140	     21.54967332	     -1.15448920	     39.03101743	     -8.54130463	    -12.92075924	    -34.17304723	     14.67386640	     -0.84111828	     -5.56237448	      9.78173302	      9.40008115
      3.07000000	     -6.08326787	     -9.02944317	      5.98310841	      0.13452524	      0.97375183	      0.44549285	      9.62638589	      7.64475634	     -9.63692410	    -22.49432028	     21.66058699	     -1.19563221	     39.11934091	     -8.54522071	    -13.25267194	    -32.53850304	     14.78962842	     -0.73218735	     -5.70157166	      9.91954077	      9.44666615
      3.08000000	     -5.91344851	     -9.25329848	      6.42160651	      0.14127243	      0.97315240	      0.44410899	      8.87539784	      7.88572981	     -9.88260772	    -22.17054042	     21.75833385	     -1.19742111	     39.18556646	     -8.61617725	    -13.70771089	    -31.02361345	     14.95227033	     -0.70011655	     -5.84152120	     10.06739506	      9.50735817
      3.09000000	     -5.73356063	     -9.48641284	      6.84352959	      0.14818640	      0.97252119	      0.44268249	      8.10241780	      8.14460111	    -10.11756230	    -21.83786733	     21.85094637	     -1.15117775	     39.23473541	     -8.73414773	    -14.26907657	    -29.63902289	     15.15360972	     -0.74143313	     -5.96868899	     10.21123828	      9.57615695
      3.10000000	     -5.53682570	     -9.70774927	      7.25052703	      0.15526007	      0.97187772	      0.44117367	      7.30537269	      8.39490003	    -10.34187143	    -21.51393058	     21.94562354	     -1.04663860	     39.25276458	     -8.87281813	    -14.92647203	    -28.38901823	     15.35853083	     -0.85414996	     -6.09745192	     10.33443369	      9.62499741
      3.11000000	     -5.35241905	     -9.94181500	      7.63352354	      0.16249215	      0.97114434	      0.43960247	      6.52760057	      8.65845763	    -10.55908704	    -21.21496140	     22.03615923	     -0.90901959	     39.28191157	     -9.04677817	    -15.61881718	    -27.29687435	     15.64754652	     -1.01077333	     -6.18583666	     10.45592990	      9.71095666
      3.12000000	     -5.15205862	    -10.14549530	      8.00693970	      0.16985465	      0.97040567	      0.43791768	      5.74126625	      8.88745322	    -10.77069561	    -20.95455885	     22.13303498	     -0.70811798	     39.26927047	     -9.20867218	    -16.34053481	    -26.34321740	     15.90713301	     -1.24141579	     -6.28026114	     10.53867603	      9.77197108
      3.13000000	     -4.96524771	    -10.33502977	      8.36248349	      0.17732901	      0.96959605	      0.43613969	      4.98936028	      9.09417205	    -10.97139174	    -20.74983478	     22.23194772	     -0.44910092	     39.25468779	     -9.36839947	    -17.04122365	    -25.54592426	     16.16398679	     -1.54554414	     -6.34679330	     10.59583052	      9.81822603
      3.14000000	     -4.79865734	    -10.52218221	      8.68722292	      0.18491100	      0.96869625	      0.43428943	      4.29025412	      9.28730166	    -11.15811815	    -20.62069816	     22.32836903	     -0.15902689	     39.24461454	     -9.53847011	    -17.67202712	    -24.91186226	     16.46452432	     -1.90573959	     -6.37629088	     10.63815760	      9.88856123
      3.15000000	     -4.65336034	    -10.71345993	      8.97218289	      0.19258508	      0.96771344	      0.43238815	      3.64398761	      9.47600456	    -11.30396974	    -20.56042452	     22.41839385	      0.13912003	     39.23638491	     -9.72696093	    -18.20074531	    -24.43880598	     16.80253688	     -2.29546450	     -6.37466554	     10.67144410	      9.99824458
      3.16000000	     -4.52012717	    -10.88165602	      9.23443848	      0.20036303	      0.96668744	      0.43038095	      3.03998080	      9.62570992	    -11.42885460	    -20.57960285	     22.49808780	      0.50948788	     39.20320965	     -9.90167750	    -18.64705689	    -24.11382587	     17.10293903	     -2.76298336	     -6.35314134	     10.67342109	     10.08036771
      3.17000000	     -4.41423922	    -11.04877848	      9.45411413	      0.20825520	      0.96558945	      0.42830386	      2.49588618	      9.75906130	    -11.50854534	    -20.67669909	     22.56302562	      0.89903796	     39.16434394	    -10.08760031	    -18.98390076	    -23.94463626	     17.40705577	     -3.21961440	     -6.29154378	     10.66303853	     10.19762817
      3.18000000	     -4.31788580	    -11.19414968	      9.64662681	      0.21626978	      0.96447271	      0.42611979	      1.99468276	      9.85149204	    -11.56661976	    -20.86385606	     22.60874338	      1.37440680	     39.08942334	    -10.26480184	    -19.25650047	    -23.92026517	     17.64646054	     -3.70240737	     -6.21423889	     10.62334913	     10.29004157
      3.19000000	     -4.24063185	    -11.32581088	      9.80442597	      0.22444706	      0.96333579	      0.42381969	      1.53063859	      9.91332811	    -11.57988946	    -21.11361506	     22.63663558	      1.88552973	     38.98794515	    -10.43715163	    -19.45008916	    -24.04178554	     17.83255830	     -4.13459293	     -6.10382269	     10.56269409	     10.41439733
      3.20000000	     -4.17350145	    -11.43980091	      9.93622556	      0.23279776	      0.96222042	      0.42139501	      1.08701721	      9.94493299	    -11.53247352	    -21.41070199	     22.63254010	      2.44160836	     38.85274442	    -10.60560176	    -19.61384833	    -24.30547018	     17.89304375	     -4.52460424	     -5.96923952	     10.47870949	     10.54193643
